Coordinates
version=1
nRows=14
nColumns=24
inDegrees=yes

Units are S.I. units (second, meters, Newtons, ...)
Angles are in degrees.

endheader
time	pelvis_tilt	pelvis_list	pelvis_rotation	pelvis_tx	pelvis_ty	pelvis_tz	hip_flexion_r	hip_adduction_r	hip_rotation_r	knee_angle_r	ankle_angle_r	subtalar_angle_r	mtp_angle_r	hip_flexion_l	hip_adduction_l	hip_rotation_l	knee_angle_l	ankle_angle_l	subtalar_angle_l	mtp_angle_l	lumbar_extension	lumbar_bending	lumbar_rotation
      0.01000000	     73.90832483	     -0.61147106	     -1.85475967	      0.52326750	      0.97704094	     -0.30458425	     -2.47041200	    -12.78747746	     -7.30928745	    -69.33267217	    -14.44163806	      0.00000000	      0.00000000	      8.93998329	     -5.45741295	      9.93397781	    -10.18605953	    -42.34043401	      0.00000000	      0.00000000	      0.00000000	      0.00000000	      0.00000000
      0.02000000	     73.38352137	     -0.04011302	     -2.00020770	      0.52763783	      0.96898524	     -0.30166759	     -2.35593085	    -13.91740046	     -7.47973765	    -68.60723206	    -18.13566256	      0.00000000	      0.00000000	      9.98660851	     -5.05796137	     10.05980271	    -10.35074023	    -42.30093309	      0.00000000	      0.00000000	      0.00000000	      0.00000000	      0.00000000
      0.03000000	     72.88780701	      0.46472988	     -2.08415373	      0.53021129	      0.96474270	     -0.30028942	     -2.12221127	    -14.86580243	     -7.64239111	    -68.00432024	    -21.52580564	      0.00000000	      0.00000000	     10.87812041	     -4.64819383	     10.17093005	    -10.53498091	    -42.26807080	      0.00000000	      0.00000000	      0.00000000	      0.00000000	      0.00000000
      0.04000000	     72.44041438	      0.86949591	     -2.10540235	      0.53125676	      0.96362518	     -0.30018011	     -1.78390286	    -15.58325202	     -7.78715953	    -67.56682409	    -24.43330874	      0.00000000	      0.00000000	     11.57680592	     -4.25885986	     10.26384334	    -10.72430400	    -42.24342006	      0.00000000	      0.00000000	      0.00000000	      0.00000000	      0.00000000
      0.05000000	     72.06202754	      1.14848954	     -2.07795524	      0.53147085	      0.96401817	     -0.30067053	     -1.39367767	    -16.05063589	     -7.89932379	    -67.31794115	    -26.68998251	      0.00000000	      0.00000000	     12.07505789	     -3.93469996	     10.33836323	    -10.89439879	    -42.22698890	      0.00000000	      0.00000000	      0.00000000	      0.00000000	      0.00000000
      0.06000000	     71.77143748	      1.30104715	     -2.02830703	      0.53152014	      0.96445187	     -0.30111638	     -1.02629720	    -16.29491982	     -7.96649652	    -67.23989685	    -28.21329729	      0.00000000	      0.00000000	     12.40381663	     -3.71629514	     10.39836524	    -11.02087831	    -42.21660449	      0.00000000	      0.00000000	      0.00000000	      0.00000000	      0.00000000
      0.07000000	     71.57937698	      1.35134864	     -1.98269549	      0.53164192	      0.96446617	     -0.30128594	     -0.74379738	    -16.37308185	     -7.98708950	    -67.27881292	    -29.03371453	      0.00000000	      0.00000000	     12.60812179	     -3.61838201	     10.44876506	    -11.09236210	    -42.20907827	      0.00000000	      0.00000000	      0.00000000	      0.00000000	      0.00000000
      0.08000000	     71.48051621	      1.33560402	     -1.95673333	      0.53176743	      0.96427753	     -0.30127518	     -0.57468628	    -16.34840558	     -7.97251593	    -67.36710434	    -29.27942553	      0.00000000	      0.00000000	     12.72200491	     -3.62169409	     10.49224927	    -11.11552101	    -42.20180370	      0.00000000	      0.00000000	      0.00000000	      0.00000000	      0.00000000
      0.09000000	     71.45456121	      1.28852067	     -1.95264178	      0.53181361	      0.96412610	     -0.30121931	     -0.51429093	    -16.27541028	     -7.94158044	    -67.44767531	    -29.13544697	      0.00000000	      0.00000000	     12.76397747	     -3.68417105	     10.52841750	    -11.10876117	    -42.19346984	      0.00000000	      0.00000000	      0.00000000	      0.00000000	      0.00000000
      0.10000000	     71.47592739	      1.23621275	     -1.96303554	      0.53179264	      0.96406118	     -0.30115948	     -0.53663858	    -16.19452815	     -7.91211953	    -67.48859508	    -28.79581015	      0.00000000	      0.00000000	     12.74747366	     -3.76184547	     10.55529972	    -11.09121460	    -42.18380677	      0.00000000	      0.00000000	      0.00000000	      0.00000000	      0.00000000
      0.11000000	     71.52220791	      1.19509190	     -1.97783248	      0.53175576	      0.96404674	     -0.30109551	     -0.60806627	    -16.13111028	     -7.89544858	    -67.48512786	    -28.42389145	      0.00000000	      0.00000000	     12.69036285	     -3.82480517	     10.57145076	    -11.07515056	    -42.17306032	      0.00000000	      0.00000000	      0.00000000	      0.00000000	      0.00000000
      0.12000000	     71.57666591	      1.17245400	     -1.98973660	      0.53172695	      0.96406234	     -0.30103817	     -0.69708963	    -16.09619508	     -7.89498368	    -67.45177145	    -28.12927393	      0.00000000	      0.00000000	     12.61558671	     -3.86099708	     10.57708986	    -11.06469853	    -42.16171077	      0.00000000	      0.00000000	      0.00000000	      0.00000000	      0.00000000
      0.13000000	     71.62701876	      1.16796838	     -1.99586078	      0.53170158	      0.96410410	     -0.30100463	     -0.77919599	    -16.08904623	     -7.90771415	    -67.40988731	    -27.96262468	      0.00000000	      0.00000000	     12.54515905	     -3.87158355	     10.57413749	    -11.05900872	    -42.15041165	      0.00000000	      0.00000000	      0.00000000	      0.00000000	      0.00000000
      0.14000000	     71.66438328	      1.17650555	     -1.99646974	      0.53167673	      0.96415451	     -0.30100325	     -0.83824035	    -16.10150073	     -7.92697175	    -67.37687107	    -27.92488306	      0.00000000	      0.00000000	     12.49406025	     -3.86448166	     10.56568791	    -11.05612330	    -42.13990070	      0.00000000	      0.00000000	      0.00000000	      0.00000000	      0.00000000
